# AST/ASF file generated using VICON BodyLanguage
# -----------------------------------------------
:version 1.10
:name VICON
:units
  mass 1.0
  length 0.45
  angle deg
:documentation
   .ast/.asf automatically generated from VICON data using
   VICON BodyBuilder and BodyLanguage model FoxedUp or BRILLIANT.MOD
:root
   order TX TY TZ RX RY RZ
   axis XYZ
   position 0 0 0  
   orientation 0 0 0 
:bonedata
  begin
     id 1 
     name lhipjoint
     direction 0.660183 -0.676772 0.325788 
     length 2.75133 
     axis 0 0 0  XYZ
  end
  begin
     id 2 
     name lfemur
     direction 0.34202 -0.939693 0  
     length 7.70317  
     axis 0 0 20  XYZ
    dof rx ry rz
    limits (-160.0 20.0)
           (-70.0 70.0)
           (-60.0 70.0)
  end
  begin
     id 3 
     name ltibia
     direction 0.342105 -0.939662 0   
     length 7.18701   
     axis 0 0 20   XYZ
    dof rx
    limits (-10.0 170.0)
  end
  begin
     id 4 
     name lfoot
     direction 0.14163 -0.389126 0.910232   
     length 2.41719   
     axis -90 7.62852e-016 20   XYZ
    dof rx rz
    limits (-45.0 90.0)
           (-70.0 20.0)
  end
  begin
     id 5 
     name ltoes
     direction 1.53533e-011 -4.21926e-011 1   
     length 1.18611   
     axis -90 7.62852e-016 20   XYZ
    dof rx
    limits (-90.0 20.0)
  end
  begin
     id 6 
     name rhipjoint
     direction -0.6658 -0.67229 0.323631   
     length 2.76968  
     axis 0 0 0  XYZ 
  end
  begin
     id 7 
     name rfemur
     direction -0.34202 -0.939693 0   
     length 7.92547   
     axis 0 0 -20   XYZ
    dof rx ry rz
    limits (-160.0 20.0)
           (-70.0 70.0)
           (-70.0 60.0)
  end
  begin
     id 8 
     name rtibia
     direction -0.342022 -0.939692 0   
     length 7.22641   
     axis 0 0 -20   XYZ
    dof rx
    limits (-10.0 170.0)
 end
 begin
     id 9 
     name rfoot
     direction -0.105675 -0.29034 0.951071   
     length 2.48149  
     axis -90 -7.62852e-016 -20   XYZ
    dof rx rz
    limits (-45.0 90.0)
           (-20.0 70.0)
  end
  begin
     id 10 
     name rtoes
     direction -1.5349e-011 -4.21859e-011 1   
     length 1.23343   
     axis -90 -7.62852e-016 -20   XYZ
    dof rx
    limits (-90.0 20.0)
  end
  begin
     id 11 
     name lowerback
     direction 0.0104173 0.993624 -0.112266   
     length 2.00527   
     axis 0 0 0   XYZ
    dof rx ry rz
    limits (-20.0 45.0)
           (-30.0 30.0)
           (-30.0 30.0)
  end
  begin
     id 12 
     name upperback
     direction 0.00733149 0.999856 -0.0152913   
     length 2.01385   
     axis 0 0 0   XYZ
    dof rx ry rz
    limits (-20.0 45.0)
           (-30.0 30.0)
           (-30.0 30.0)
  end
  begin
     id 13 
     name thorax
     direction 0.0026304 0.999318 0.036841   
     length 2.03734   
     axis 0 0 0   XYZ
    dof rx ry rz
    limits (-20.0 45.0)
           (-30.0 30.0)
           (-30.0 30.0)
  end
  begin
     id 14 
     name lowerneck
     direction 0.0293154 0.998757 0.0403082   
     length 1.65303   
     axis 0 0 0   XYZ
    dof rx ry rz
    limits (-20.0 45.0)
           (-30.0 30.0)
           (-30.0 30.0)
  end
  begin
     id 15 
     name upperneck
     direction -0.0376619 0.998184 -0.0470083   
     length 1.60926   
     axis 0 0 0   XYZ
    dof rx ry rz
    limits (-20.0 45.0)
           (-30.0 30.0)
           (-30.0 30.0)
  end
  begin
     id 16
     name head
     direction -0.0170133 0.999635 -0.0209778  
     length 1.73625  
     axis 0 0 0   XYZ
    dof rx ry rz
    limits (-20.0 45.0)
           (-30.0 30.0)
           (-30.0 30.0)
  end
  begin
     id 17 
     name lclavicle
     direction 0.919857 0.39181 -0.0186333  
     length 3.75313  
     axis 0 0 0   XYZ
    dof ry rz
    limits (-20.0 10.0)
           (0.0 20.0)
  end
  begin
     id 18 
     name lhumerus
     direction 1 -4.48988e-011 1.44029e-027   
     length 5.49313   
     axis 180 -30 -90   XYZ
    dof rx ry rz
    limits (-60.0 90.0)
           (-90.0 90.0)
           (-90.0 90.0)
  end
  begin
     id 19
     name lradius
     direction 1 -4.48924e-011 7.46281e-027   
     length 3.29037   
     axis 180 -30 -90   XYZ
    dof rx
    limits (-10.0 170.0)
  end
  begin
     id 20
     name lwrist
     direction 1 -4.48955e-011 2.19879e-026   
     length 1.64519   
     axis -1.34358e-014 90 90   XYZ
    dof ry
    limits (-180.0 0.0)
 end
  begin
     id 21 
     name lhand
     direction 1 -4.48978e-011 4.39747e-026   
     length 0.729656   
     axis -2.80598e-014 90 90   XYZ
    dof rx rz
    limits (-90.0 90.0)
           (-45.0 45.0)
  end
  begin
     id 22 
     name lfingers
     direction 1 -4.49071e-011 8.79411e-026   
     length 0.588268   
     axis -5.61193e-014 90 90   XYZ
    dof rx
    limits (0.0 90.0)
  end
  begin
     id 23
     name lthumb
     direction 0.707107 -6.34817e-011 0.707107   
     length 0.844638   
     axis -90 45 -9.86923e-015   XYZ
    dof rx rz
    limits (-45.0 45.0)
           (-45.0 45.0)
  end
  begin
     id 24 
     name rclavicle
     direction -0.919898 0.388279 0.0550233   
     length 3.7171  
     axis 0 0 0   XYZ 
    dof ry rz
    limits (-10.0 20.0)
           (-20.0 0.0)
  end
  begin
     id 25 
     name rhumerus
     direction -1 -4.48968e-011 9.98372e-028  
     length 5.23684   
     axis 180 30 90   XYZ
    dof rx ry rz
    limits (-90.0 60.0)
           (-90.0 90.0)
           (-90.0 90.0)
  end
  begin
     id 26 
     name rradius
     direction -1 -4.48956e-011 1.01023e-026   
     length 3.38251   
     axis 180 30 90   XYZ
    dof rx
    limits (-10.0 170.0)
  end
  begin
     id 27 
     name rwrist
     direction -1 -4.4892e-011 2.19886e-026   
     length 1.69126   
     axis -1.34358e-014 -90 -90   XYZ
    dof ry
    limits (-180.0 0.0)
  end
  begin
     id 28
     name rhand
     direction -1 -4.49024e-011 4.39727e-026   
     length 0.691454   
     axis -2.80598e-014 -90 -90   XYZ
    dof rx rz
    limits (-90.0 90.0)
           (-45.0 45.0)
  end
  begin
     id 29
     name rfingers
     direction -1 -4.49097e-011 8.79388e-026   
     length 0.557468   
     axis -5.61193e-014 -90 -90   XYZ
    dof rx
    limits (0.0 90.0)
  end
  begin
     id 30
     name rthumb
     direction -0.707107 -6.34938e-011 0.707107   
     length 0.800416   
     axis -90 -45 9.86923e-015   XYZ
    dof rx rz
    limits (-45.0 45.0)
           (-45.0 45.0)
  end
:hierarchy
  begin
    root lhipjoint rhipjoint lowerback
    lhipjoint lfemur
    lfemur ltibia
    ltibia lfoot
    lfoot ltoes
    rhipjoint rfemur
    rfemur rtibia
    rtibia rfoot
    rfoot rtoes
    lowerback upperback
    upperback thorax
    thorax lowerneck lclavicle rclavicle
    lowerneck upperneck
    upperneck head
    lclavicle lhumerus
    lhumerus lradius
    lradius lwrist
    lwrist lhand lthumb
    lhand lfingers
    rclavicle rhumerus
    rhumerus rradius
    rradius rwrist
    rwrist rhand rthumb
    rhand rfingers
  end

#!OML:ASF H:\BabyWalks\Project 1\Capture day 1\Session 1\baby.ASF
:FULLY-SPECIFIED
:DEGREES
133
root -38.0104 17.3472 -3.46771 -34.8849 80.7878 -38.6768
lowerback 16.2229 -0.773401 -0.746039
upperback 6.52485 -0.755593 1.29298
thorax -2.12743 -0.265284 1.90697
lowerneck -4.28834 4.03527 -3.89896
upperneck -2.89991 5.6019 0.907923
head -0.319462 2.86123 0.967273
rclavicle 2.78299e-014 -6.36111e-015
rhumerus -37.2004 21.3473 -88.5667
rradius 49.4827
rwrist -0.0672548
rhand -6.89126 -16.8284
rfingers 7.12502
rthumb 18.9754 -45.9229
lclavicle 2.78299e-014 -6.36111e-015
lhumerus -38.0851 3.88621 78.8125
lradius 50.4357
lwrist 1.40793
lhand 0.628026 11.6792
lfingers 7.12502
lthumb 26.1918 39.8921
rfemur 4.9661 11.0228 28.3265
rtibia 14.6509
rfoot -21.9357 -5.08991
rtoes -12.5584
lfemur -26.874 -7.7544 -7.88303
ltibia 40.2861
lfoot -24.1361 -20.3027
ltoes 2.37042
134
root -37.9527 17.34 -3.47177 -35.2798 80.9553 -39.2137
lowerback 16.2732 -0.683341 -1.04443
upperback 6.53698 -0.689028 1.08574
thorax -2.14188 -0.233598 1.84702
lowerneck -4.17216 3.90879 -3.85258
upperneck -3.12854 5.43506 1.28163
head -0.41429 2.78067 1.06951
rclavicle 1.59028e-014 3.97569e-015
rhumerus -37.391 21.2787 -88.793
rradius 49.284
rwrist -0.505917
rhand -6.80219 -16.8578
rfingers 7.12502
rthumb 19.0611 -45.9438
lclavicle 1.59028e-014 3.97569e-015
lhumerus -38.0212 3.74665 78.5359
lradius 50.3432
lwrist 1.3666
lhand 0.672285 11.6773
lfingers 7.12502
lthumb 26.2341 39.8839
rfemur 5.17996 11.2407 28.3322
rtibia 14.3933
rfoot -21.7629 -5.53609
rtoes -13.5527
lfemur -26.9675 -7.89488 -7.95715
ltibia 40.4599
lfoot -24.1998 -20.2122
ltoes 2.53356
135
root -37.8936 17.333 -3.47608 -35.5087 81.1141 -39.5878
lowerback 16.3225 -0.583671 -1.37323
upperback 6.54603 -0.615001 0.869247
thorax -2.15892 -0.198401 1.79317
lowerneck -4.05124 3.7794 -3.80072
upperneck -3.36224 5.26672 1.66581
head -0.511438 2.69862 1.175
rclavicle 2.42517e-014 -1.43125e-014
rhumerus -37.5748 21.2053 -89.0187
rradius 49.0467
rwrist -0.969403
rhand -6.68774 -16.9182
rfingers 7.12502
rthumb 19.1711 -45.9933
lclavicle 2.42517e-014 -1.43125e-014
lhumerus -37.9512 3.61854 78.2504
lradius 50.2495
lwrist 1.32071
lhand 0.696428 11.6544
lfingers 7.12502
lthumb 26.2573 39.8576
rfemur 5.37298 11.5288 28.3289
rtibia 14.1834
rfoot -21.5797 -6.04066
rtoes -14.6376
lfemur -27.0521 -8.02183 -8.05415
ltibia 40.6313
lfoot -24.2499 -20.0947
ltoes 2.74125
136
root -37.8337 17.326 -3.48066 -35.5714 81.2636 -39.8017
lowerback 16.3647 -0.473448 -1.73242
upperback 6.55458 -0.531958 0.646462
thorax -2.17276 -0.158949 1.74811
lowerneck -3.92436 3.64655 -3.75524
upperneck -3.60775 5.09719 2.0725
head -0.613931 2.61535 1.28955
rclavicle -8.74653e-015 4.77083e-015
rhumerus -37.7499 21.1266 -89.238
rradius 48.78
rwrist -1.43473
rhand -6.54676 -17.0008
rfingers 7.12502
rthumb 19.3067 -46.0624
lclavicle -8.74653e-015 4.77083e-015
lhumerus -37.8693 3.49938 77.961
lradius 50.1584
lwrist 1.27084
lhand 0.705347 11.6081
lfingers 7.12502
lthumb 26.2658 39.81
rfemur 5.52082 11.7791 28.2936
rtibia 14.0407
rfoot -21.4099 -6.47558
rtoes -15.68
lfemur -27.134 -8.13173 -8.17152
ltibia 40.8049
lfoot -24.2851 -19.9847
ltoes 3.05385
137
root -37.7731 17.3183 -3.48534 -35.4511 81.4025 -39.8423
lowerback 16.3227 -0.345384 -2.25347
upperback 6.62385 -0.441196 0.522327
thorax -2.07501 -0.119842 1.8959
lowerneck -3.88499 3.51518 -3.82685
upperneck -3.86529 4.93927 2.43718
head -0.707872 2.53968 1.41385
rclavicle -2.22639e-014 9.54166e-015
rhumerus -37.8076 21.1995 -89.2854
rradius 48.4971
rwrist -1.91589
rhand -6.36512 -17.1031
rfingers 7.12502
rthumb 19.4813 -46.1471
lclavicle -2.22639e-014 9.54166e-015
lhumerus -37.6959 3.55932 77.7985
lradius 50.056
lwrist 1.18571
lhand 0.686958 11.5475
lfingers 7.12502
lthumb 26.2482 39.7521
rfemur 5.62149 11.9909 28.2323
rtibia 13.9847
rfoot -21.2615 -6.90411
rtoes -16.9015
lfemur -27.2213 -8.21847 -8.30816
ltibia 40.9865
lfoot -24.3313 -19.8919
ltoes 3.4226
138
root -37.7119 17.3101 -3.48991 -35.1993 81.5307 -39.76
lowerback 16.3137 -0.239734 -2.77017
upperback 6.67668 -0.380168 0.378041
thorax -2.01127 -0.095209 2.02573
lowerneck -3.92197 3.39432 -3.9377
upperneck -4.06654 4.80162 2.84725
head -0.774309 2.47439 1.56279
rclavicle -1.63003e-014 -6.36111e-015
rhumerus -37.8676 21.3312 -89.3723
rradius 48.2005
rwrist -2.35471
rhand -6.14836 -17.2127
rfingers 7.12502
rthumb 19.6897 -46.2355
lclavicle -1.63003e-014 -6.36111e-015
lhumerus -37.5458 3.68282 77.5887
lradius 49.9738
lwrist 1.10633
lhand 0.658011 11.476
lfingers 7.12502
lthumb 26.2205 39.6847
rfemur 5.66323 12.1776 28.1562
rtibia 14.0419
rfoot -21.1374 -7.32394
rtoes -18.1773
lfemur -27.3122 -8.28168 -8.4562
ltibia 41.1747
lfoot -24.3952 -19.8388
ltoes 3.855
139
root -37.6501 17.3013 -3.49412 -34.8735 81.6548 -39.6088
lowerback 16.3101 -0.147401 -3.32537
upperback 6.73322 -0.340578 0.252028
thorax -1.94452 -0.0823118 2.2003
lowerneck -4.00935 3.28585 -4.1351
upperneck -4.24936 4.6879 3.29543
head -0.830413 2.42247 1.74167
rclavicle 4.77083e-015 1.11319e-014
rhumerus -37.905 21.5437 -89.4364
rradius 47.8976
rwrist -2.73621
rhand -5.90667 -17.321
rfingers 7.12502
rthumb 19.9221 -46.3199
lclavicle 4.77083e-015 1.11319e-014
lhumerus -37.3891 3.8962 77.3865
lradius 49.9043
lwrist 1.02378
lhand 0.614502 11.4001
lfingers 7.12502
lthumb 26.1788 39.615
rfemur 5.64525 12.3045 28.0651
rtibia 14.2177
rfoot -21.04 -7.7145
rtoes -19.5429
lfemur -27.4058 -8.33178 -8.61033
ltibia 41.3708
lfoot -24.5017 -19.8226
ltoes 4.27335
